<?xml version="1.0" standalone="no"?>
<!DOCTYPE svg PUBLIC "-//W3C//DTD SVG 20010904//EN"
 "http://www.w3.org/TR/2001/REC-SVG-20010904/DTD/svg10.dtd">
<svg version="1.0" xmlns="http://www.w3.org/2000/svg"
 width="972.000000pt" height="1280.000000pt" viewBox="0 0 972.000000 1280.000000"
 preserveAspectRatio="xMidYMid meet">
<metadata>
Created by potrace 1.15, written by Peter Selinger 2001-2017
</metadata>
<g transform="translate(0.000000,1280.000000) scale(0.100000,-0.100000)"
fill="#000000" stroke="none">
<path d="M4355 12453 c-407 -27 -754 -131 -1057 -316 l-68 -42 -1 -65 c-1 -76
-1 -811 0 -855 l1 -30 492 2 c271 1 503 2 514 2 21 1 22 5 26 184 4 156 8 190
26 238 35 88 104 139 190 139 50 0 104 -19 95 -33 -4 -6 -1 -7 6 -3 15 10 53
-23 44 -37 -3 -6 -1 -7 5 -3 14 8 36 -30 26 -46 -5 -7 -3 -8 6 -3 10 6 12 4 7
-9 -4 -9 -3 -14 2 -11 15 9 34 -104 28 -169 -19 -195 -91 -261 -491 -448 -436
-204 -635 -320 -773 -452 -156 -148 -234 -311 -263 -551 -12 -94 -21 -961 -12
-1027 l4 -28 1284 0 1284 0 0 550 0 550 -515 0 -514 0 -5 -32 c-3 -18 -8 -62
-11 -98 -9 -99 -38 -149 -108 -184 -55 -27 -68 -29 -208 -34 l-149 -5 0 53 c0
78 18 126 69 183 66 73 153 126 473 287 440 222 579 299 687 381 80 60 164
154 220 246 166 271 174 808 17 1138 -135 284 -401 452 -814 511 -101 14 -408
25 -517 17z"/>
<path d="M7423 12450 c-375 -30 -714 -136 -996 -312 -54 -34 -101 -66 -104
-71 -3 -4 -5 -94 -4 -198 0 -147 -2 -188 -12 -183 -9 5 -9 4 1 -7 8 -9 12 -48
12 -117 0 -80 -3 -101 -12 -96 -10 6 -10 5 -1 -7 8 -10 12 -53 11 -125 l0
-109 526 -3 526 -2 0 132 c0 259 50 352 189 350 60 0 137 -25 127 -41 -3 -5 1
-14 9 -21 8 -7 15 -9 15 -5 0 4 7 2 15 -5 9 -7 14 -19 11 -27 -3 -8 -2 -12 3
-9 8 6 22 -22 37 -73 10 -38 7 -220 -5 -274 -26 -112 -75 -163 -186 -192 -45
-11 -115 -15 -297 -15 l-238 0 0 -202 c0 -112 -1 -268 -3 -348 l-2 -145 215 2
c293 2 380 -15 458 -89 31 -31 44 -57 20 -42 -7 4 -8 3 -4 -5 4 -6 11 -9 15
-6 15 9 43 -83 36 -117 -5 -26 -4 -30 5 -18 19 25 6 -264 -14 -328 -21 -64
-74 -127 -123 -143 -52 -17 -157 -7 -190 17 -38 29 -70 88 -80 148 -4 28 -8
56 -9 61 -1 6 -2 85 -3 177 l-1 167 -522 -2 -523 -2 -6 -115 c-3 -63 -6 -109
-7 -101 -1 8 -5 11 -8 8 -4 -4 -2 -12 4 -19 16 -20 16 -431 0 -422 -10 6 -11
4 0 -7 8 -9 12 -48 12 -117 0 -80 -3 -101 -12 -96 -10 6 -9 3 0 -8 8 -11 12
-34 9 -62 -2 -25 -1 -44 2 -43 12 3 51 -24 46 -33 -3 -5 0 -12 6 -16 8 -4 9
-3 5 4 -11 18 -4 15 77 -34 42 -25 122 -66 179 -91 57 -25 105 -50 106 -55 2
-4 8 -6 13 -2 5 3 46 -6 92 -20 208 -65 458 -97 757 -98 233 -1 391 13 535 47
238 56 384 131 515 264 125 127 189 253 235 461 22 102 31 389 16 505 -40 300
-204 522 -450 610 -31 11 -33 14 -16 20 95 35 176 86 246 155 131 129 185 270
196 510 25 585 -280 932 -901 1025 -131 19 -404 27 -553 15z m287 -800 c0 -5
-2 -10 -4 -10 -3 0 -8 5 -11 10 -3 6 -1 10 4 10 6 0 11 -4 11 -10z"/>
<path d="M1000 12103 l0 -308 35 -23 c32 -20 52 -53 23 -36 -8 4 -10 3 -5 -2
5 -5 14 -9 20 -9 7 0 11 -8 11 -18 -1 -9 2 -15 6 -12 11 7 22 -43 14 -57 -5
-7 -2 -8 6 -3 9 6 12 -1 8 -28 -2 -20 0 -33 4 -31 5 3 8 -412 8 -923 0 -968
-1 -978 -43 -1059 -9 -17 -32 -41 -51 -55 l-36 -24 0 -312 0 -313 674 0 674 0
5 21 c3 12 6 153 6 313 l1 291 -41 28 c-26 18 -49 45 -62 75 l-22 47 -3 1373
-2 1372 -615 0 -615 0 0 -307z"/>
<path d="M7895 8209 c-630 -35 -940 -286 -1030 -832 -16 -98 -36 -357 -28
-369 2 -5 0 -8 -4 -8 -5 0 -8 -15 -6 -32 2 -18 5 -334 7 -703 3 -368 7 -686
10 -705 14 -92 30 -208 30 -232 1 -14 3 -24 6 -22 7 8 39 -120 35 -141 -3 -11
-2 -14 1 -6 8 16 77 -124 76 -152 0 -9 3 -15 7 -13 11 7 53 -52 46 -64 -4 -6
-1 -9 7 -8 7 2 12 -3 10 -10 -1 -8 2 -11 6 -8 12 7 44 -28 35 -39 -5 -4 -3 -5
3 -2 14 8 57 -36 47 -48 -5 -4 -3 -5 3 -2 15 8 56 -22 48 -35 -4 -7 -2 -8 5
-4 7 5 28 -3 49 -16 20 -14 63 -35 94 -48 31 -13 54 -28 51 -33 -3 -6 -1 -7 5
-3 6 3 44 -3 84 -14 164 -46 292 -61 562 -67 467 -10 760 42 979 174 228 138
352 356 401 708 17 120 20 457 6 575 -69 563 -353 838 -887 857 -214 8 -404
-16 -591 -76 l-34 -10 5 242 c5 269 10 298 67 358 27 29 46 39 83 44 81 12
143 2 185 -32 54 -44 73 -104 81 -248 l6 -120 508 -3 507 -2 0 387 0 388 -73
46 c-392 251 -853 359 -1402 328z m364 -2012 c28 -19 41 -33 37 -43 -3 -8 -2
-13 3 -10 12 8 35 -50 25 -65 -4 -7 -3 -10 3 -6 17 11 23 -58 23 -280 1 -273
-6 -321 -56 -390 -48 -65 -188 -83 -267 -34 -78 48 -97 133 -97 425 0 292 20
368 110 414 64 33 160 28 219 -11z"/>
<path d="M2103 8162 l-623 -2 -341 -513 c-188 -281 -461 -689 -607 -906 l-265
-394 1 -391 c0 -215 1 -406 1 -423 l1 -33 710 0 710 0 0 -26 c0 -14 -4 -23 -8
-20 -5 3 -7 -8 -4 -23 2 -16 -5 -46 -17 -69 -17 -33 -33 -47 -85 -72 l-65 -31
2 -307 2 -307 662 -2 c365 -1 672 1 683 4 20 5 20 13 20 314 l0 309 -27 11
c-59 22 -97 82 -109 168 l-7 51 116 0 115 0 3 28 c2 15 4 176 4 357 l-1 330
-117 3 -117 3 0 969 c0 533 -3 970 -7 972 -5 2 -288 2 -630 0z m-388 -1502 l0
-440 -293 0 -292 0 22 35 c126 196 554 844 558 845 3 0 5 -198 5 -440z"/>
<path d="M3663 8118 c-5 -24 -6 -44 -3 -46 7 -3 4 -91 -4 -99 -3 -3 -1 -13 4
-22 5 -10 5 -23 0 -30 -4 -8 -4 -27 0 -43 6 -19 5 -26 -2 -22 -7 4 -7 0 -1
-12 5 -11 8 -48 6 -84 -3 -72 -3 -94 1 -160 2 -25 -2 -51 -8 -59 -8 -11 -8
-13 1 -8 9 6 11 -5 7 -45 -3 -29 -8 -56 -11 -60 -2 -5 0 -8 4 -8 5 0 7 -21 6
-47 -2 -27 -4 -54 -3 -60 0 -15 0 -27 0 -80 0 -21 1 -55 3 -76 1 -21 -1 -43
-5 -50 -4 -6 -2 -17 3 -24 7 -8 7 -18 0 -31 -6 -11 -8 -22 -5 -25 10 -10 10
-122 -1 -136 -7 -11 -7 -13 2 -8 8 5 11 -1 9 -20 -2 -16 -4 -41 -5 -56 -1 -19
-5 -26 -13 -22 -7 4 -6 1 2 -7 11 -9 15 -27 13 -58 -2 -25 -3 -51 -3 -57 0
-32 0 -45 0 -80 0 -21 1 -55 2 -76 2 -21 0 -43 -4 -50 -4 -6 -2 -17 3 -24 7
-8 7 -18 0 -31 -6 -11 -8 -22 -5 -25 10 -10 10 -122 -1 -136 -8 -12 -7 -13 4
-6 11 6 13 4 8 -8 -3 -10 -3 -17 1 -17 16 -1 855 -1 944 0 l97 0 30 44 c70
101 195 123 294 53 17 -11 26 -25 23 -34 -3 -8 -2 -11 4 -8 13 8 35 -39 49
-103 7 -32 11 -165 11 -334 0 -321 -8 -376 -66 -433 -68 -68 -195 -66 -266 4
-58 59 -77 159 -78 414 l0 157 -520 0 c-455 0 -520 -2 -521 -15 -1 -15 -4 -28
-9 -42 -1 -5 -1 -12 0 -18 6 -26 5 -77 -2 -88 -4 -6 -2 -17 3 -24 7 -8 7 -18
0 -31 -6 -11 -8 -22 -5 -25 10 -10 10 -122 -1 -136 -7 -11 -7 -13 2 -8 8 5 11
-1 9 -20 -2 -16 -4 -41 -5 -56 -1 -19 -5 -26 -13 -22 -7 4 -6 1 2 -7 17 -14
20 -84 5 -108 -5 -8 -4 -11 3 -6 7 4 10 -3 8 -21 -2 -16 -5 -28 -6 -28 -1 0
-2 -15 -3 -33 -1 -17 0 -32 4 -32 3 0 3 -21 2 -47 -2 -27 -4 -54 -3 -60 0 -26
0 -39 -1 -73 -2 -63 0 -67 56 -105 30 -21 52 -42 49 -46 -3 -5 3 -6 12 -2 12
4 15 3 10 -6 -4 -6 -4 -10 1 -9 15 4 53 -13 48 -22 -3 -5 0 -12 6 -16 8 -5 9
-3 4 6 -9 15 -17 19 131 -57 208 -106 419 -168 714 -208 79 -11 391 -13 500
-4 268 23 490 92 643 198 118 81 232 229 286 370 74 191 101 377 101 689 0
229 -8 321 -41 491 -76 391 -269 597 -636 678 -61 14 -127 18 -298 18 -195 0
-232 -3 -325 -23 -58 -13 -127 -33 -155 -43 -27 -10 -51 -19 -52 -19 -2 0 -3
108 -3 239 l0 240 112 -5 c206 -7 249 -38 282 -205 l6 -26 497 2 c274 1 506 3
516 4 16 1 17 31 17 476 l0 475 -1234 0 -1235 0 -8 -42z"/>
<path d="M8286 7397 c3 -10 9 -15 12 -12 3 3 0 11 -7 18 -10 9 -11 8 -5 -6z"/>
<path d="M5010 7386 c0 -2 7 -9 15 -16 9 -7 15 -8 15 -2 0 5 -7 12 -15 16 -8
3 -15 4 -15 2z"/>
<path d="M4415 3964 c-457 -36 -720 -136 -898 -344 -119 -138 -176 -294 -199
-538 -17 -189 8 -414 57 -518 9 -19 13 -40 9 -47 -4 -6 -4 -9 1 -5 11 11 38
-29 29 -44 -4 -7 -3 -8 4 -4 10 6 36 -27 37 -46 0 -5 3 -7 7 -5 12 4 77 -66
71 -76 -3 -6 -1 -7 5 -3 14 9 115 -58 104 -69 -4 -5 -2 -5 5 -1 6 3 28 -1 47
-11 l36 -17 -75 -40 c-217 -118 -323 -263 -382 -521 -14 -63 -18 -120 -17
-270 1 -200 16 -301 64 -427 15 -40 17 -54 7 -60 -8 -5 -7 -8 5 -8 16 0 35
-35 29 -55 -1 -5 1 -7 5 -3 9 9 47 -50 40 -61 -3 -4 8 -18 25 -30 19 -14 28
-28 25 -37 -3 -8 -2 -13 3 -10 8 6 39 -22 40 -36 1 -5 4 -8 9 -9 15 -1 41 -32
35 -42 -3 -5 -2 -7 4 -4 5 3 27 -10 49 -30 21 -20 43 -36 47 -35 14 4 77 -44
69 -53 -4 -5 -2 -5 4 -2 7 4 38 -5 69 -19 161 -70 349 -116 545 -132 145 -11
503 -7 610 7 263 34 484 107 633 210 271 186 403 506 383 927 -16 347 -146
576 -400 704 l-73 36 75 40 c43 22 107 69 149 108 59 55 81 84 113 150 59 124
75 211 75 411 -1 94 -7 206 -14 250 -73 442 -354 679 -890 750 -112 15 -473
27 -576 19z m283 -755 c13 -5 20 -13 17 -19 -3 -5 0 -7 8 -4 19 7 49 -36 70
-100 23 -66 32 -234 18 -330 -22 -156 -67 -208 -182 -214 -84 -5 -130 10 -168
53 -39 45 -60 118 -67 235 -11 173 24 317 88 364 45 32 150 39 216 15z m13
-1353 c26 -14 43 -30 43 -39 -1 -9 2 -15 5 -12 9 5 41 -59 41 -81 0 -9 -5 -12
-12 -8 -7 4 -8 3 -4 -5 4 -6 11 -9 15 -6 11 6 21 -98 21 -224 0 -119 -9 -213
-20 -206 -4 2 -5 -6 -3 -18 6 -32 -37 -108 -74 -133 -63 -42 -169 -41 -234 1
-76 49 -100 150 -95 405 4 218 29 294 108 333 52 26 155 22 209 -7z"/>
<path d="M4745 3146 c10 -14 19 -26 22 -26 7 0 -17 39 -28 46 -6 3 -3 -5 6
-20z"/>
<path d="M7493 3960 c-761 -60 -1054 -387 -1053 -1176 0 -265 24 -452 79 -609
24 -68 26 -79 9 -69 -7 4 -8 3 -4 -5 4 -6 12 -8 18 -5 8 5 9 1 5 -10 -4 -9 -3
-15 1 -12 12 7 44 -63 36 -76 -4 -6 -2 -8 4 -4 11 6 55 -57 55 -80 0 -7 4 -11
8 -8 10 6 55 -55 51 -68 -1 -5 1 -7 6 -4 12 7 54 -38 45 -49 -5 -4 -2 -5 5 -1
16 9 44 -12 35 -27 -3 -6 -1 -7 5 -3 14 8 104 -48 94 -59 -4 -5 -2 -5 4 -2 7
4 36 -4 65 -17 132 -58 286 -80 509 -73 190 6 304 28 424 81 32 14 61 26 64
26 2 0 2 -98 -1 -217 -6 -230 -19 -306 -63 -354 -43 -47 -118 -66 -200 -49
-105 22 -149 96 -161 273 l-6 87 -503 0 -504 0 -1 -32 c0 -18 -1 -85 -1 -148
0 -74 -5 -118 -12 -122 -8 -6 -8 -8 0 -8 9 0 12 -53 12 -187 1 -104 1 -206 1
-228 1 -38 4 -43 50 -70 28 -16 47 -33 44 -38 -3 -6 -1 -7 5 -3 7 4 44 -10 84
-32 40 -21 94 -47 120 -57 27 -10 45 -22 41 -28 -3 -5 -2 -7 4 -4 5 3 70 -14
144 -38 119 -40 163 -51 274 -70 17 -3 37 -8 45 -10 104 -30 571 -46 765 -26
527 56 809 285 910 740 48 213 50 266 49 1091 0 738 -1 782 -22 916 -81 537
-331 776 -887 849 -145 19 -498 27 -652 15z m360 -772 c25 -12 37 -24 33 -33
-3 -8 0 -17 6 -21 7 -4 8 -3 4 4 -4 7 -5 12 -2 12 11 0 37 -62 32 -76 -3 -8
-2 -12 3 -9 18 11 26 -92 26 -330 -1 -197 -4 -250 -18 -297 -31 -103 -89 -148
-191 -148 -68 0 -102 12 -144 53 -54 52 -64 103 -69 354 -7 322 12 430 89 486
54 40 158 42 231 5z"/>
<path d="M268 3869 c-2 -43 -2 -1314 1 -1371 1 -17 29 -18 451 -18 l450 0 0
189 c0 423 44 491 314 491 l84 0 -38 -102 c-21 -57 -75 -204 -120 -328 -45
-124 -98 -268 -117 -320 -19 -52 -39 -106 -43 -120 -41 -126 -138 -369 -145
-363 -4 5 -5 3 -1 -4 7 -13 3 -27 -106 -323 -42 -113 -122 -331 -178 -485 -56
-154 -124 -341 -152 -415 -27 -74 -63 -171 -79 -214 -16 -43 -28 -81 -26 -82
8 -8 1151 -4 1158 3 4 4 27 64 52 133 53 146 150 410 382 1040 92 250 190 516
217 590 101 276 338 918 372 1010 l36 95 0 323 0 322 -1254 0 -1254 0 -4 -51z"/>
</g>
</svg>
